<?xml version="1.0" standalone="no"?>
<!DOCTYPE svg PUBLIC "-//W3C//DTD SVG 1.1//EN" "http://www.w3.org/Graphics/SVG/1.1/DTD/svg11.dtd">
<svg xmlns="http://www.w3.org/2000/svg" version="1.1" width="17.0" height="17.0">

	<metadata>
		<rdf:RDF xmlns:rdf = "http://www.w3.org/1999/02/22-rdf-syntax-ns#" xmlns:rdfs = "http://www.w3.org/2000/01/rdf-schema#" xmlns:dc = "http://purl.org/dc/elements/1.1/">
			<rdf:Description rdf:about="http://likethought.com/opacity/">
				<dc:title></dc:title>
				<dc:creator></dc:creator>
				<dc:rights></dc:rights>
				<dc:description></dc:description>
				<dc:format>image/svg+xml</dc:format>
				<dc:language>en</dc:language>
			</rdf:Description>
		</rdf:RDF>
	</metadata>
	<g>
		<title>Layer 1</title>
		<g transform="translate(2.0, 3.152) scale(0.038, 0.042)">
<svg
   xmlns:dc="http://purl.org/dc/elements/1.1/"
   xmlns:cc="http://creativecommons.org/ns#"
   xmlns:rdf="http://www.w3.org/1999/02/22-rdf-syntax-ns#"
   xmlns:svg="http://www.w3.org/2000/svg"
   xmlns="http://www.w3.org/2000/svg"
   version="1.1"
   width="317.5625"
   height="255.34775"
   id="svg2">
  <defs
     id="defs4" />
  <metadata
     id="metadata7">
    <rdf:RDF>
      <cc:Work
         rdf:about="">
        <dc:format>image/svg+xml</dc:format>
        <dc:type
           rdf:resource="http://purl.org/dc/dcmitype/StillImage" />
        <dc:title></dc:title>
      </cc:Work>
    </rdf:RDF>
  </metadata>
  <g
     transform="translate(-213.58559,-301.30434)"
     id="layer1">
    <path
       d="m 225.4375,120.5 c -28.39805,0 -54.49374,11.49013 -73.5625,30.21875 l 21.15625,21.125 C 186.42608,158.71247 204.79404,150.5 225.4375,150.5 c 21.07203,0 39.78209,8.54388 53.21875,22.15625 l 21.125,-21.125 C 280.66836,132.3241 254.24255,120.5 225.4375,120.5 z"
       transform="translate(146.64809,300.77309)"
       id="path3793"
       style="font-size:medium;font-style:normal;font-variant:normal;font-weight:normal;font-stretch:normal;text-indent:0;text-align:start;text-decoration:none;line-height:normal;letter-spacing:normal;word-spacing:normal;text-transform:none;direction:ltr;block-progression:tb;writing-mode:lr-tb;text-anchor:start;baseline-shift:baseline;color:#000000;fill:#000000;fill-opacity:1;stroke:none;stroke-width:1.01280868;marker:none;visibility:visible;display:inline;overflow:visible;enable-background:accumulate;font-family:Sans;-inkscape-font-specification:Sans" />
    <path
       d="m 372.05336,495.71009 c -15.91445,0 -30.47712,13.01383 -30.47712,30.471 0,17.45718 14.56267,30.471 30.47712,30.471 15.91446,0 30.46488,-13.01382 30.46488,-30.471 0,-17.45717 -14.55042,-30.471 -30.46488,-30.471 z"
       id="path3789"
       style="font-size:medium;font-style:normal;font-variant:normal;font-weight:normal;font-stretch:normal;text-indent:0;text-align:start;text-decoration:none;line-height:normal;letter-spacing:normal;word-spacing:normal;text-transform:none;direction:ltr;block-progression:tb;writing-mode:lr-tb;text-anchor:start;baseline-shift:baseline;color:#000000;fill:#000000;fill-opacity:1;fill-rule:nonzero;stroke:none;stroke-width:1;marker:none;visibility:visible;display:inline;overflow:visible;enable-background:accumulate;font-family:Sans;-inkscape-font-specification:Sans" />
    <path
       d="m 225.46875,60.5 c -44.9975,0 -86.11886,18.242473 -116.0625,47.875 l 21.15625,21.09375 c 24.26306,-24.00839 57.66092,-38.9375 94.90625,-38.9375 37.61358,0 71.28178,15.22933 95.5625,39.65625 l 21.125,-21.15625 C 312.19677,79.002856 270.80502,60.5 225.46875,60.5 z"
       transform="translate(146.64809,300.77309)"
       id="path3797"
       style="font-size:medium;font-style:normal;font-variant:normal;font-weight:normal;font-stretch:normal;text-indent:0;text-align:start;text-decoration:none;line-height:normal;letter-spacing:normal;word-spacing:normal;text-transform:none;direction:ltr;block-progression:tb;writing-mode:lr-tb;text-anchor:start;baseline-shift:baseline;color:#000000;fill:#000000;fill-opacity:1;stroke:none;stroke-width:1.03394938;marker:none;visibility:visible;display:inline;overflow:visible;enable-background:accumulate;font-family:Sans;-inkscape-font-specification:Sans" />
    <path
       d="M 225.46875,0.53125 C 163.91062,0.53125 107.74973,25.480521 66.9375,66 l 21.15625,21.125 c 35.10739,-34.905172 83.49852,-56.59375 137.375,-56.59375 54.18812,0 102.82123,21.926707 137.9375,57.1875 L 384.5,66.5625 C 343.68121,25.711691 287.31103,0.53125 225.46875,0.53125 z"
       transform="translate(146.64809,300.77309)"
       id="path3803"
       style="font-size:medium;font-style:normal;font-variant:normal;font-weight:normal;font-stretch:normal;text-indent:0;text-align:start;text-decoration:none;line-height:normal;letter-spacing:normal;word-spacing:normal;text-transform:none;direction:ltr;block-progression:tb;writing-mode:lr-tb;text-anchor:start;baseline-shift:baseline;color:#000000;fill:#000000;fill-opacity:1;stroke:none;stroke-width:1.07882667;marker:none;visibility:visible;display:inline;overflow:visible;enable-background:accumulate;font-family:Sans;-inkscape-font-specification:Sans" />
  </g>
</svg>
		</g>
	</g>

</svg>
